<?xml version="1.0" encoding="utf-8"?>
<!-- Generator: Adobe Illustrator 24.1.3, SVG Export Plug-In . SVG Version: 6.00 Build 0)  -->
<svg version="1.1" id="Layer_1" xmlns="http://www.w3.org/2000/svg" xmlns:xlink="http://www.w3.org/1999/xlink" x="0px" y="0px"
	 viewBox="0 0 108 108" style="enable-background:new 0 0 108 108;" xml:space="preserve">
<style type="text/css">
	.st0{fill:#009688;}
	.st1{fill:#FFBE2E;}
</style>
<g id="_x23_009688ff">
	<path class="st0" d="M0,0.5h108v108H0V0.5z"/>
</g>
<g id="_x23_ffbe2eff">
	<path class="st1" d="M32.5,32.5c1.4,0,2.7,0,4,0c0,6.9,0,13.8,0,20.7c-1.4,0-2.7,0-4,0C32.5,46.3,32.5,39.4,32.5,32.5z"/>
	<path class="st1" d="M54.3,33.5c7,0,14,0,20.9,0c0,1.3,0,2.6,0,3.9c-5.5,0-11.1,0-16.7,0c0,1.1,0,2.1,0,3.2c0,0.1,0.1,0.3,0.1,0.4
		c0.1,0.1,0.1,0.2,0.1,0.3c0.3,0.1,0.5,0.1,0.8,0.3c4.4,0,8.8,0,13.1,0c0.2,0,0.4,0.1,0.7,0.1c0.3,0.2,0.8,0.3,1.1,0.6
		c0.3,0.2,0.4,0.6,0.5,1c0.1,0.1,0.1,0.4,0.1,0.6c0.1,0.1,0.1,0.1,0.1,0.3c0,3.1,0,6.1,0,9.1c-9,0-18.1,0-27.1,0c0,1.8,0,3.6,0,5.4
		c0,0.3,0,0.8-0.3,1.1c-0.1,0.3-0.4,0.4-0.4,0.7c-0.2,0.2-0.5,0.3-0.7,0.5c-0.3,0.1-0.7,0.4-1,0.4c-0.1,0-0.1,0.1-0.2,0.1
		c-2.1,0-4.3,0-6.4,0c0-1.4,0-2.7,0-4.1c1.4,0,2.7,0,4,0c0.1-0.1,0.3-0.1,0.4-0.1c0.1-0.1,0.1-0.1,0.2-0.3c0.1,0,0.1,0,0.1,0
		c0-0.1,0.1-0.2,0.1-0.3c0.1-0.2,0.1-0.5,0.3-0.7c0-4.8,0-9.7,0-14.6c1.4,0,2.7,0,4,0c0,2.6,0,5.2,0,7.8c7.6,0,15.2,0,22.8,0
		c0-1,0-1.9,0-2.8c-0.1,0-0.1-0.1-0.1-0.1V46c-0.1-0.1-0.3-0.3-0.4-0.4c-0.1,0-0.2,0-0.3,0L70,45.5c-4.3,0-8.6,0-12.9,0
		c-0.3,0-0.6-0.2-1-0.1c-0.5-0.2-1.2-0.3-1.4-1c-0.1-0.2-0.2-0.4-0.3-0.6c-0.1-0.2-0.1-0.4-0.1-0.7L54.2,43
		C54.3,39.8,54.3,36.6,54.3,33.5z"/>
	<path class="st1" d="M32.6,55.8c1.4,0,2.7,0,4,0c0,4.2,0,8.4,0,12.7c0.2,0.1,0.1,0.4,0.1,0.6c0.1,0.1,0.1,0.3,0.1,0.3
		c0.1,0.2,0.2,0.3,0.3,0.5c0.1,0.1,0.2,0.3,0.3,0.4c0.3,0.4,0.7,0.6,1.1,0.8c0.2,0.1,0.3,0.1,0.5,0.3c0.2,0,0.3,0,0.5,0.1
		c0.2,0,0.4,0,0.6,0c0.1,0.1,0.2,0.1,0.3,0.1c0.3,0,0.6,0.1,0.9-0.1c0.2-0.1,0.5,0,0.8-0.1c0.3-0.2,0.8-0.1,1.1-0.3
		c0.3-0.2,0.8-0.3,1.1-0.7c0.2-0.2,0.4-0.4,0.5-0.7c0.1-0.3,0.1-0.5,0.1-0.8s0-0.5-0.1-0.7c-0.3-0.5-0.9-0.8-1.5-0.8
		c-0.1,0-0.1-0.1-0.1-0.1c-0.6,0-1.3,0-1.9,0c0-1.4,0-2.7,0-4c6.6,0,13.1,0,19.7,0c0-0.8,0-1.7,0-2.5c0-0.1,0-0.2-0.1-0.3
		c0-0.1,0-0.2,0-0.3c-0.2-0.2-0.5-0.5-0.7-0.7c-0.2,0-0.5-0.1-0.7-0.1c-2.4,0-4.8,0-7.2,0c0-1.3,0-2.6,0-3.9c3.5,0,7,0,10.5,0
		c0.1,0,0.2,0,0.3,0.1c0.1,0,0.1,0,0.2,0c0.1,0.1,0.3,0.1,0.4,0.1c0.1,0.1,0.1,0.1,0.2,0.3c0.1,0,0.1,0,0.1,0
		c0.2,0.2,0.5,0.4,0.5,0.7c0.1,0.2,0.2,0.5,0.3,0.7c0,0.3-0.1,0.5,0.1,0.7c0,3.1,0,6.1,0,9.2c-5.7,0-11.6,0-17.3,0v0.1
		c0.3,0.1,0.8,0.3,0.8,0.6l0.1,0.1c0.3,0.5,0.1,1.2,0.1,1.8L48.5,70c0,0.1,0.1,0.4-0.1,0.5c0,0.1,0,0.1,0,0.2
		c-0.1,0.2-0.2,0.4-0.3,0.7c-0.2,0.3-0.4,0.5-0.5,0.9c-0.4,0.3-0.6,0.8-1,1.2c-0.3,0.1-0.4,0.4-0.7,0.5c-0.1,0.1-0.3,0.2-0.4,0.3
		c-0.3,0.1-0.7,0.3-1,0.5c-0.3,0.1-0.6,0.3-0.9,0.4c-0.1,0-0.1,0-0.2,0c-0.1,0.1-0.3,0.1-0.5,0.1c-0.2,0.2-0.5,0.1-0.7,0.1
		c-0.1,0.1-0.2,0.1-0.3,0.1c-0.7,0-1.4,0-2.1,0c-0.2,0-0.4-0.1-0.5-0.1c-0.3-0.1-0.5,0-0.8-0.1c-0.3,0-0.5-0.2-0.8-0.1
		c-0.3-0.2-0.6-0.3-0.9-0.4c-0.5-0.2-0.8-0.5-1.2-0.7c-0.3-0.2-0.4-0.5-0.8-0.6c0-0.1,0-0.1,0-0.1c-0.2-0.3-0.5-0.5-0.8-0.7
		c-0.2-0.3-0.4-0.6-0.5-1c-0.1-0.2-0.2-0.4-0.3-0.6c-0.1-0.3-0.1-0.5-0.3-0.8c0-0.1,0-0.2,0-0.3c-0.2-0.1-0.1-0.5-0.1-0.7
		c-0.2-0.1-0.1-0.4-0.1-0.5C32.6,64.3,32.6,60.1,32.6,55.8z"/>
	<path class="st1" d="M73.8,58.5C73.9,58.5,73.9,58.5,73.8,58.5c0.2,0,0.3,0.1,0.4,0.1c0,0.7,0,1.4,0,2c0.2,0.2,0.7,0.3,0.6,0.7
		c0,0.4-0.3,0.6-0.5,1c-0.1,0.5,0,1-0.1,1.5c-0.3,0.7-1,1-1.6,1.5c0,0.7,0,1.5,0.1,2.2c0.1,0.1,0.2,0.1,0.3,0.2
		c0.6,0.3,1.2,0.4,1.8,0.6c0.5,0.3,0.9,0.7,1.4,1c0,0.4,0.1,0.7,0.1,1.2c0,0.3,0.1,0.7,0,1c0,0.4,0.3,0.7,0.4,1
		c0.1,0.4,0.4,0.7,0.8,1c0,0.2-0.1,0.3-0.1,0.5c-0.5,0-1,0-1.4-0.1c-0.3-0.2-0.5-0.5-0.7-0.7c-0.1,0.1-0.1,0.3-0.2,0.4
		S75,73.9,74.9,74s-0.1,0.2-0.1,0.3c-0.4,0-0.8,0-1.2,0c-0.1,0.1-0.3,0.2-0.5,0.2c-0.1-0.4-0.6-0.5-0.9-0.9c-0.5,0-1,0-1.5,0
		c-0.3,0.2-0.5,0.5-0.9,0.7c-0.2,0.1-0.4,0.1-0.5,0.3c-0.5-0.5-1.2-0.7-1.9-1c-0.3-0.3-0.7-0.7-1-1c-1,0.1-2.1,0.1-3.1,0.1
		c-0.3,0-0.5,0.1-0.8,0.1c0.1-0.1,0.1-0.3,0.1-0.3c0.4-0.5,0.8-1,1.3-1.5c0.3-0.3,0.8-0.6,1.1-1c0.2-0.2,0.5-0.2,0.9-0.2
		c0.3-0.1,0.7-0.1,1-0.1c0.3-0.4,0.8-0.7,1.2-1c0-0.5,0-1,0.1-1.4c0.1-0.3,0.3-0.5,0.4-0.7c0.3-0.5,0.8-0.9,1.2-1.4
		c0-0.3,0-0.5,0-0.9c0.1-0.3,0.3-0.5,0.5-0.7c0.3-0.4,0.3-0.9,0.3-1.4c0.1-0.3,0.1-0.6,0.1-1c0.6-0.7,1.4-1.3,2-2
		C73.2,59.2,73.6,58.9,73.8,58.5z"/>
	<path class="st1" d="M57.8,70c0.1-0.1,0.3-0.3,0.5-0.3c0.4,0,0.8,0,1.2,0c0,0.1,0.1,0.1,0.1,0.1s0.2,0,0.3,0
		c0.2,0.3,0.5,0.5,0.8,0.8c0.1,0.1,0.1,0.2,0.1,0.3c0,0.1,0,0.2,0,0.2c0.2,0.1,0.1,0.3,0.1,0.5s0.1,0.5-0.1,0.6v0.1
		c-0.2,0.3-0.3,0.7-0.7,1c-0.3,0.1-0.6,0.3-0.9,0.4c-0.2,0-0.4,0-0.6,0c-0.1,0-0.1-0.1-0.2-0.1c-0.3,0.1-0.5-0.1-0.8-0.3
		c-0.3-0.3-0.7-0.6-0.7-1c-0.2-0.2-0.1-0.5-0.1-0.7s-0.1-0.4,0.1-0.5c0-0.1,0-0.2,0-0.2c0.1-0.1,0.2-0.3,0.3-0.4s0.2-0.2,0.3-0.3
		C57.7,70,57.7,70,57.8,70z"/>
	<path class="st1" d="M53.5,69.9c0.4-0.3,1-0.1,1.5-0.1c0.5,0.1,1,0.5,1.2,1c0.1,0.3,0.2,0.5,0.3,0.7l0.1,0.1c0,0.2,0.1,0.4-0.1,0.5
		c0,0.1,0,0.3,0,0.3c-0.2,0.3-0.4,0.7-0.7,1c-0.2,0.1-0.3,0.1-0.5,0.3c-0.4,0.1-0.9,0.3-1.2,0.1c-0.1,0-0.2,0-0.2,0
		c-0.5-0.2-0.7-0.6-1.1-0.9c0-0.1,0-0.2,0-0.3c-0.2-0.2-0.1-0.5-0.1-0.7c0-0.3-0.1-0.6,0.1-0.8c0.1-0.1,0.1-0.3,0.2-0.4
		C52.9,70.3,53.2,70.1,53.5,69.9z"/>
	<path class="st1" d="M56.4,73.4c0.3,0,0.6,0,1,0c0.5,0.2,1,0.5,1.2,1.1c0.1,0.1,0.1,0.1,0.1,0.3c0.1,0.2,0.1,0.4,0.1,0.7
		c0,0.2,0.1,0.5-0.1,0.7c-0.1,0.1-0.1,0.3-0.2,0.4c-0.3,0.3-0.5,0.5-0.8,0.7c-0.5,0.3-1.2,0.3-1.8,0.1c-0.5-0.2-0.7-0.7-1-1
		c0-0.2,0-0.4-0.1-0.5c0-0.3-0.1-0.6,0.1-0.9c0-0.3,0.2-0.5,0.3-0.7c0.2-0.2,0.4-0.5,0.7-0.6C56.1,73.5,56.2,73.5,56.4,73.4z"/>
</g>
</svg>
